<?xml version="1.0" standalone="no"?>
<!DOCTYPE svg PUBLIC "-//W3C//DTD SVG 20010904//EN"
 "http://www.w3.org/TR/2001/REC-SVG-20010904/DTD/svg10.dtd">
<svg version="1.0" xmlns="http://www.w3.org/2000/svg"
 width="922.000000pt" height="666.000000pt" viewBox="0 0 922.000000 666.000000"
 preserveAspectRatio="xMidYMid meet">
<metadata>
Created by potrace 1.11, written by Peter Selinger 2001-2013
</metadata>
<g transform="translate(0.000000,666.000000) scale(0.100000,-0.100000)"
fill="#000000" stroke="none">
<path d="M0 6441 l1 -220 37 -3 c123 -10 386 47 428 93 9 10 25 19 35 19 10 0
21 5 24 10 3 6 1 10 -4 10 -6 0 -11 5 -11 10 0 6 10 10 23 10 22 0 87 53 87
71 0 5 6 9 13 9 16 0 77 54 77 69 0 5 6 8 14 5 9 -3 24 7 37 25 13 17 29 31
38 31 8 0 12 3 8 6 -3 3 8 19 24 35 16 15 29 31 29 34 0 3 -194 5 -430 5
l-431 0 1 -219z"/>
<path d="M907 6639 c-6 -10 -16 -19 -21 -19 -11 0 -52 -43 -66 -70 -5 -10 -7
-26 -4 -34 4 -10 1 -16 -10 -16 -10 0 -13 6 -10 15 10 26 -11 16 -34 -15 -21
-27 -21 -30 -5 -30 16 -1 15 -3 -5 -20 -13 -10 -30 -16 -39 -13 -12 5 -14 1
-8 -16 5 -16 1 -23 -17 -30 -13 -6 -18 -10 -13 -11 6 0 -4 -9 -21 -18 -18 -9
-60 -34 -93 -54 -34 -21 -69 -38 -77 -38 -7 0 -14 -9 -14 -19 0 -24 -6 -28
-45 -32 -16 -2 -35 -9 -42 -15 -6 -6 -23 -9 -37 -7 -16 3 -26 1 -26 -6 0 -6
-15 -11 -32 -10 -28 0 -30 2 -13 9 11 5 15 9 8 9 -20 2 -43 -11 -38 -20 7 -11
-21 -16 -118 -23 -47 -4 -77 -2 -77 4 0 5 -11 9 -25 8 -28 -3 -35 -28 -7 -28
16 -1 16 -1 0 -14 -17 -12 -18 -101 -18 -1601 l0 -1588 27 -23 c16 -13 32 -24
36 -24 10 0 56 -52 57 -64 0 -5 -8 -2 -18 7 -20 18 -52 23 -52 8 0 -6 5 -13
10 -16 6 -4 8 -11 4 -16 -3 -5 -10 -7 -15 -4 -5 4 -9 1 -9 -5 0 -7 6 -10 13
-7 18 7 43 14 35 10 -15 -8 -8 -22 7 -17 8 4 15 1 15 -6 0 -6 -10 -10 -22 -8
-19 2 -23 -1 -21 -20 2 -13 -1 -21 -7 -17 -5 3 -18 1 -27 -5 -17 -11 -17 -11
0 -6 9 3 17 2 17 -3 0 -5 -9 -11 -19 -14 -15 -3 -21 1 -24 17 -2 11 -4 -571
-4 -1294 -1 -723 1 -1306 4 -1295 3 11 12 24 19 30 11 8 21 52 23 112 1 20 44
43 68 37 12 -4 25 -15 29 -26 3 -11 8 -17 11 -14 3 3 12 -1 19 -9 20 -19 18
-108 -5 -193 l-19 -72 4482 0 c3939 1 4477 3 4447 15 -18 8 -42 15 -52 15 -11
0 -19 5 -19 10 0 6 -5 10 -10 10 -64 0 -293 209 -282 258 2 8 -2 20 -9 28 -6
8 -9 17 -5 21 3 3 6 2 6 -4 0 -12 58 -4 67 10 3 6 -4 19 -17 29 l-23 19 22 6
c13 3 20 11 17 19 -3 7 2 18 10 24 11 10 14 9 14 -3 0 -9 10 -17 23 -20 22 -4
22 -4 -3 -14 -23 -10 -20 -11 33 -18 31 -4 57 -11 57 -16 0 -5 -7 -9 -15 -9
-8 0 -15 -4 -15 -10 0 -14 64 -12 79 3 11 10 13 7 9 -13 -4 -23 -1 -25 33 -25
21 0 35 4 32 9 -4 5 -1 6 6 2 6 -4 9 -11 6 -16 -5 -8 37 -40 55 -40 5 0 19 -9
30 -20 17 -17 24 -19 43 -8 12 7 28 11 34 10 10 -2 13 654 13 3193 l0 3195
-3260 0 c-1827 0 -3261 -4 -3264 -9 -8 -12 67 -20 75 -8 4 5 11 3 16 -6 4 -9
37 -24 72 -33 59 -15 67 -15 97 0 30 14 35 14 49 0 8 -9 13 -19 10 -24 -3 -4
23 -12 58 -16 l62 -8 -50 -6 c-27 -4 -79 -3 -115 1 -63 8 -266 64 -343 94 -32
13 -125 15 -603 15 -425 0 -563 -3 -558 -12 4 -7 3 -8 -5 -4 -6 4 -23 1 -36
-8 -32 -21 -38 -20 -32 4 5 20 2 21 -234 20 -226 -1 -240 -2 -252 -21z m3752
-18 c20 -5 118 -29 219 -53 100 -23 181 -47 179 -53 -5 -14 -76 -19 -90 -6 -7
5 -37 12 -67 16 -30 3 -63 8 -72 11 -10 3 -18 1 -18 -5 0 -6 9 -11 19 -11 29
0 51 -11 51 -25 0 -7 21 -20 48 -29 26 -10 56 -21 67 -26 31 -13 135 -23 135
-12 0 5 -9 17 -20 27 -24 22 -26 35 -5 35 14 0 19 -12 16 -32 0 -5 4 -8 10 -8
6 0 17 -7 26 -16 11 -10 25 -13 45 -8 17 3 40 1 52 -5 36 -18 144 -51 168 -51
22 0 132 -41 145 -54 3 -3 16 -6 27 -6 11 0 38 -6 61 -14 22 -7 67 -22 100
-32 33 -10 72 -28 87 -40 41 -33 78 -38 134 -16 65 25 124 36 124 22 0 -10
-25 -14 -65 -11 -17 2 -17 0 -5 -8 12 -9 12 -11 1 -11 -7 0 -22 -9 -32 -21
-14 -16 -16 -26 -8 -49 11 -29 33 -45 51 -34 6 4 6 9 -2 14 -9 6 -7 11 9 20
18 9 21 17 16 40 -3 16 -2 31 4 35 6 3 11 0 11 -8 0 -8 9 -22 20 -32 11 -10
20 -24 20 -32 0 -7 9 -13 19 -13 19 0 22 -6 35 -60 7 -28 90 -77 101 -60 19
31 82 -5 175 -101 19 -20 69 -53 110 -72 42 -20 86 -45 99 -57 14 -11 32 -18
42 -15 12 4 18 -1 23 -19 6 -24 47 -43 66 -31 6 4 14 -5 19 -18 5 -14 27 -35
48 -48 21 -13 46 -34 56 -46 10 -13 27 -23 38 -23 19 0 21 -6 37 -85 6 -29 15
-43 35 -53 15 -7 27 -18 27 -23 0 -6 5 -7 10 -4 6 4 22 0 35 -9 13 -9 31 -16
39 -16 8 0 32 -21 53 -46 61 -75 125 -146 166 -184 20 -20 37 -43 37 -53 0 -9
6 -17 13 -17 6 0 34 -32 61 -71 41 -61 47 -75 38 -90 -17 -26 -15 -54 4 -70
10 -8 13 -21 9 -38 -4 -20 -3 -23 5 -11 9 12 10 9 8 -15 -2 -20 1 -29 10 -27
19 4 122 -106 143 -153 22 -47 24 -81 7 -88 -10 -4 -10 -7 -1 -17 10 -11 15
-11 28 0 8 7 17 11 19 9 10 -10 76 -109 76 -114 0 -3 11 -28 25 -57 27 -56 31
-78 14 -78 -5 0 -8 4 -5 9 8 13 -17 60 -36 66 -28 10 -43 35 -47 80 -1 6 -5 3
-11 -5 -7 -12 -12 -12 -29 4 -12 11 -21 30 -21 43 0 16 -7 27 -19 30 -10 2
-24 16 -30 29 -14 32 -14 47 0 38 9 -5 10 1 5 22 -10 37 -14 40 -28 26 -18
-18 -28 -15 -39 15 -8 22 -12 25 -21 13 -8 -13 -9 -12 -5 2 3 9 -2 37 -12 63
-14 38 -19 43 -25 29 -6 -15 -9 -16 -16 -5 -4 8 -6 21 -2 29 4 11 0 14 -15 10
-16 -4 -19 -2 -16 12 3 12 -2 20 -14 22 -30 7 -55 -3 -48 -20 3 -8 0 -21 -6
-28 -9 -12 -9 -13 3 -9 18 7 34 -11 40 -47 5 -26 -1 -33 -24 -29 -5 0 -8 -8
-8 -18 0 -11 -4 -23 -10 -26 -16 -10 -12 -22 10 -28 11 -3 20 -1 20 4 0 4 7 6
15 3 8 -4 15 -10 15 -16 0 -5 -7 -16 -15 -24 -10 -10 -15 -11 -15 -4 0 7 -7
10 -15 6 -9 -3 -15 0 -15 9 0 9 -10 15 -25 15 -14 0 -25 -5 -25 -12 0 -6 -3
-8 -7 -4 -5 4 1 14 11 22 16 11 17 16 6 29 -11 13 -11 16 0 13 8 -2 16 6 18
17 4 19 3 19 -20 -2 -24 -23 -78 -32 -78 -13 0 5 12 21 26 35 20 20 23 29 14
40 -6 8 -18 11 -26 8 -14 -5 -31 23 -20 34 3 3 17 1 31 -5 l25 -12 -22 30
c-12 17 -26 30 -32 30 -17 0 -46 32 -46 52 0 10 -4 18 -10 18 -14 0 -13 -26 2
-50 7 -10 9 -22 6 -25 -9 -9 -47 17 -53 36 -11 33 -62 46 -145 36 -37 -5 -61
6 -56 26 1 7 1 9 -1 5 -3 -5 -11 -8 -19 -8 -20 0 -17 -23 6 -43 22 -18 25 -33
11 -42 -12 -7 -81 60 -81 78 0 7 9 19 20 27 11 8 20 18 20 22 0 13 -34 8 -54
-7 -34 -26 -54 -17 -22 8 19 15 26 28 21 36 -5 9 -10 10 -18 2 -17 -17 -27
-13 -27 10 0 18 4 20 28 13 34 -9 132 -15 154 -8 9 3 19 12 22 21 6 14 -1 15
-54 10 -33 -3 -63 -1 -66 4 -3 5 -21 7 -39 3 -19 -3 -40 -2 -47 2 -9 6 -4 10
16 14 16 3 31 11 34 19 3 8 0 11 -6 7 -15 -9 -92 12 -92 24 0 6 -11 10 -24 10
-16 0 -26 7 -29 21 -4 16 1 23 24 31 16 5 29 14 29 20 0 5 5 6 10 3 6 -3 10 1
10 11 0 14 -7 16 -46 11 -33 -3 -47 -1 -51 9 -3 8 -13 14 -22 14 -9 0 -12 3
-6 8 13 9 17 32 6 32 -5 0 -12 -12 -17 -27 -5 -21 -8 -24 -11 -10 -3 9 -13 17
-23 17 -24 0 -31 -60 -11 -103 19 -42 16 -39 58 -46 21 -4 39 -12 39 -19 3
-25 4 -27 12 -14 11 17 62 -1 62 -23 0 -18 -56 -21 -62 -4 -4 13 -48 3 -48
-11 0 -5 10 -10 22 -12 28 -4 38 -38 11 -38 -10 0 -28 -7 -40 -15 -24 -17 -53
-10 -53 11 0 8 -6 17 -14 20 -8 3 -12 12 -10 19 3 7 1 16 -5 20 -6 3 -11 14
-11 23 0 15 2 15 10 2 8 -13 10 -12 10 3 0 9 -7 17 -15 17 -8 0 -15 -7 -15
-17 0 -9 -3 -13 -7 -10 -3 4 0 18 7 32 12 22 11 27 -2 38 -38 31 -60 78 -54
112 8 42 21 44 52 10 l24 -26 -4 43 c-2 24 -4 45 -5 48 -1 4 -17 4 -36 2 -19
-2 -33 -7 -31 -11 3 -4 -11 -7 -31 -7 -22 0 -40 -7 -48 -17 -7 -9 -17 -17 -22
-17 -14 0 -8 -109 6 -123 6 -6 11 -22 11 -35 0 -16 4 -21 13 -16 6 4 9 4 5 -1
-4 -4 -3 -15 2 -24 5 -10 5 -23 -1 -32 -5 -8 -9 -9 -9 -3 0 15 -63 10 -68 -5
-2 -6 10 -16 27 -22 27 -9 29 -13 18 -30 -6 -10 -20 -19 -30 -19 -10 0 -15 5
-12 10 3 6 -3 10 -14 10 -11 0 -23 -5 -26 -10 -4 -6 -11 -8 -16 -5 -5 4 -9 2
-9 -4 0 -13 16 -22 56 -31 29 -7 38 -4 65 21 31 29 49 36 49 20 0 -11 82 -42
125 -46 6 0 20 -7 33 -13 12 -7 27 -10 32 -7 5 3 11 1 15 -5 3 -5 0 -10 -8
-10 -10 0 -13 -7 -10 -20 4 -13 0 -20 -10 -20 -8 0 -37 -18 -65 -40 -47 -38
-82 -51 -82 -31 0 5 9 13 20 16 11 3 23 17 26 31 3 13 12 24 20 24 13 0 31 46
22 56 -3 2 -21 6 -39 9 -19 2 -53 8 -76 13 -36 8 -42 7 -46 -9 -3 -11 -1 -19
3 -19 5 0 8 -11 7 -24 -1 -14 3 -25 8 -25 6 0 9 11 8 25 -2 27 12 33 21 8 11
-29 6 -54 -10 -54 -9 0 -18 -9 -21 -19 -6 -23 -39 -34 -63 -21 -11 6 -40 6
-76 0 -33 -6 -60 -10 -61 -10 -1 0 0 -6 3 -14 3 -7 -2 -16 -10 -19 -9 -4 -16
-2 -16 3 0 6 -4 10 -10 10 -16 0 -12 -36 5 -50 22 -18 13 -22 -20 -10 -20 7
-31 7 -41 -1 -21 -17 -17 -26 12 -33 15 -4 24 -9 22 -12 -9 -9 -69 19 -78 36
-11 20 -4 50 11 50 22 0 6 28 -18 34 -16 4 -36 9 -45 12 -12 4 -17 -2 -20 -23
-2 -15 -7 -26 -13 -23 -5 3 -9 11 -9 17 1 7 -2 10 -8 7 -5 -3 -6 -15 -2 -26 4
-14 2 -18 -5 -14 -6 4 -11 2 -11 -4 0 -7 7 -10 15 -7 8 4 17 2 20 -4 4 -5 11
-7 16 -3 5 3 7 9 4 14 -3 4 4 10 15 13 23 6 32 -13 13 -31 -15 -15 -93 -7 -93
9 0 5 -7 9 -16 9 -11 0 -14 -6 -9 -21 6 -18 5 -19 -13 -8 -16 10 -23 10 -36
-4 -21 -21 -20 -26 3 -20 10 2 21 -1 24 -9 7 -21 -115 -6 -150 18 -16 11 -37
19 -48 19 -24 0 -65 -37 -47 -43 7 -2 9 -15 5 -33 -5 -28 9 -41 22 -19 10 16
23 12 21 -7 -1 -13 5 -17 19 -15 11 2 32 5 48 7 32 5 37 -10 5 -19 -28 -6 -56
-46 -34 -46 8 0 24 11 37 25 17 18 35 25 62 25 35 0 44 -9 38 -42 0 -5 3 -8 9
-8 6 0 5 -10 -2 -25 -14 -31 -30 -33 -26 -3 4 28 -46 48 -68 27 -7 -8 -10 -19
-6 -24 15 -22 68 -49 89 -46 17 2 21 -2 17 -12 -6 -17 34 -59 48 -51 5 4 0 15
-11 25 -12 11 -21 23 -21 27 0 15 45 7 62 -10 10 -10 14 -18 8 -18 -18 0 -21
-45 -6 -75 9 -17 16 -36 16 -42 0 -7 5 -13 11 -13 5 0 7 5 4 10 -3 6 1 10 9
10 8 0 23 -13 32 -30 14 -23 23 -28 40 -24 25 6 64 -11 64 -27 0 -7 -12 -9
-34 -5 -32 6 -34 5 -32 -19 0 -16 7 -25 18 -25 9 0 20 -4 23 -10 7 -12 45 -14
46 -2 0 4 2 17 3 29 3 27 16 44 16 21 0 -11 15 -17 59 -22 55 -6 58 -8 53 -31
-6 -31 -22 -33 -23 -2 -1 21 -1 21 -8 -3 -5 -14 -4 -29 1 -34 14 -16 9 -42
-13 -70 -11 -14 -18 -30 -15 -35 8 -13 -24 -43 -38 -38 -8 3 -11 -5 -8 -24 2
-16 0 -29 -4 -29 -5 0 -16 -15 -23 -32 -14 -33 -47 -68 -62 -68 -4 0 -9 10
-11 23 -2 14 -11 23 -25 25 -12 2 -27 10 -33 18 -16 18 -40 18 -40 -1 0 -8 9
-15 19 -15 11 0 28 -11 39 -25 11 -14 25 -25 30 -25 6 0 10 -9 9 -20 -1 -15
-8 -20 -32 -20 -20 0 -26 -3 -17 -9 10 -6 8 -10 -10 -16 -12 -4 -31 -6 -40 -5
-10 0 -26 -3 -36 -9 -14 -7 -21 -5 -30 10 -15 24 -51 24 -92 2 -30 -17 -32
-17 -44 0 -7 9 -16 17 -19 17 -10 0 -13 -70 -2 -73 24 -8 -20 -36 -83 -53 -37
-10 -72 -25 -79 -33 -17 -23 -42 2 -27 26 14 22 -20 63 -53 63 -24 0 -38 19
-31 42 3 8 12 4 26 -10 12 -12 32 -22 45 -22 12 0 34 -11 49 -25 15 -14 29
-25 32 -25 2 0 7 14 11 30 4 17 12 30 18 31 7 0 2 4 -10 9 -22 9 -32 45 -14
52 4 2 12 13 15 26 6 18 4 22 -15 22 -13 0 -33 12 -46 28 -16 20 -22 23 -23
11 0 -22 -20 -26 -116 -22 -78 3 -82 2 -88 -19 -8 -32 -67 -58 -129 -58 -37 0
-48 -3 -37 -10 13 -8 12 -10 -2 -10 -10 0 -18 -4 -18 -10 0 -5 -7 -7 -15 -4
-12 5 -14 -2 -10 -36 2 -23 9 -48 15 -55 19 -23 1 -38 -37 -32 -48 8 -73 -10
-73 -50 0 -28 4 -33 24 -33 14 0 28 -4 31 -10 4 -6 -5 -10 -19 -10 -14 0 -26
-4 -26 -10 0 -5 -6 -7 -14 -4 -8 3 -17 1 -21 -5 -3 -6 1 -11 9 -11 18 0 19 -2
10 -24 -4 -10 -18 -16 -35 -16 -19 0 -29 -5 -29 -15 0 -8 4 -15 10 -15 6 0 6
-9 0 -26 -12 -30 1 -54 29 -54 12 0 17 -8 16 -27 0 -34 30 -44 38 -12 3 11 10
18 16 15 5 -4 6 -18 2 -34 -4 -15 -6 -32 -4 -39 3 -7 -17 -16 -55 -23 -39 -8
-71 -22 -93 -41 -34 -29 -49 -36 -49 -21 1 10 26 42 34 42 12 0 36 28 36 42 0
7 -10 19 -21 27 -21 12 -22 12 -16 -18 4 -18 2 -31 -3 -31 -6 0 -10 9 -10 19
0 11 -6 22 -12 24 -10 4 -10 8 -2 14 12 8 30 73 20 73 -6 0 -89 -32 -95 -36
-2 -2 2 -10 8 -18 7 -8 10 -20 6 -26 -8 -13 -55 -13 -55 0 0 6 7 10 15 10 8 0
15 5 15 11 0 8 -12 9 -37 4 -21 -4 -44 -8 -51 -8 -7 0 -10 -8 -7 -18 4 -12 -1
-22 -15 -29 -28 -15 -38 -5 -21 22 11 17 10 23 -8 39 -27 25 -26 28 2 22 12
-3 19 -2 15 2 -4 5 -3 14 3 21 11 14 4 34 -12 34 -5 0 -9 -9 -9 -20 0 -22 -25
-27 -34 -7 -5 9 -7 9 -12 0 -3 -7 -12 -9 -20 -6 -9 3 -14 0 -12 -8 2 -10 -7
-14 -28 -13 l-31 2 4 -62 c3 -50 0 -66 -18 -89 -15 -20 -22 -45 -23 -82 0 -29
-4 -56 -7 -60 -4 -3 -4 -25 -2 -48 5 -38 2 -44 -21 -56 -14 -8 -26 -21 -26
-29 0 -10 -10 -6 -29 14 -20 20 -26 31 -18 36 7 4 14 3 15 -2 2 -6 10 -10 18
-10 16 0 20 29 4 31 -48 6 -72 21 -67 40 3 12 0 19 -9 19 -21 0 -17 28 6 40
11 6 20 15 20 20 0 16 -72 11 -92 -6 -19 -18 -51 -20 -105 -9 -53 12 -38 26
19 19 32 -4 49 -3 45 3 -4 5 7 8 26 5 22 -3 29 -1 22 6 -5 6 -23 13 -40 15
-19 2 -31 10 -33 22 -2 10 0 15 6 11 6 -3 18 1 27 11 16 15 16 17 -6 33 -15
12 -20 24 -16 39 3 11 1 24 -5 27 -6 4 -5 10 3 15 19 11 7 19 -19 12 -12 -3
-22 -12 -22 -19 0 -8 -7 -14 -16 -14 -13 0 -14 3 -5 14 14 17 -6 27 -39 19
-16 -4 -20 -11 -16 -28 6 -25 0 -36 -19 -29 -7 3 -11 14 -8 27 5 22 5 22 -11
2 -15 -18 -15 -18 -10 -1 6 15 3 17 -13 12 -14 -4 -23 -1 -27 9 -3 9 0 15 9
15 34 0 65 23 65 50 0 26 16 50 33 50 5 0 4 -6 -2 -14 -9 -10 -9 -20 0 -39 15
-33 28 -37 72 -27 27 6 39 4 48 -6 15 -19 20 -18 49 9 35 31 102 35 129 8 24
-24 31 -26 31 -10 0 6 -10 19 -21 28 -12 10 -20 23 -17 31 3 10 8 9 21 -5 14
-13 26 -15 60 -9 23 5 48 9 55 9 12 0 46 54 39 62 -2 2 -12 -6 -22 -17 -22
-25 -53 -26 -62 -2 -4 9 -13 23 -20 31 -12 11 -17 11 -34 -5 -14 -12 -23 -14
-30 -7 -8 8 -2 16 20 29 32 19 23 39 -13 28 -10 -4 -22 0 -27 7 -6 10 -8 6 -7
-11 3 -23 0 -25 -37 -25 -43 0 -65 -14 -65 -40 0 -11 7 -15 22 -13 12 2 23 -3
26 -11 3 -10 0 -12 -11 -8 -10 4 -14 1 -12 -6 3 -7 -2 -21 -10 -31 -20 -27
-35 -10 -37 42 -2 60 -16 68 -73 42 -35 -16 -50 -19 -59 -10 -8 8 -5 12 12 16
12 4 22 10 22 15 0 5 7 9 15 9 8 0 15 7 15 16 0 10 6 14 14 11 10 -4 13 -1 10
8 -3 7 -12 16 -20 19 -16 6 -19 46 -4 46 6 0 10 -6 11 -12 0 -7 5 -1 11 15 5
15 14 24 19 21 6 -3 16 -1 23 5 8 7 18 11 22 10 21 -3 26 2 14 16 -7 8 -10 16
-6 16 41 9 66 21 61 30 -4 5 3 9 15 9 14 0 19 4 14 13 -6 9 -4 9 8 -1 8 -7 22
-10 31 -6 8 3 18 0 22 -5 3 -6 11 -9 16 -6 5 4 9 -1 9 -9 0 -23 18 -29 36 -12
9 9 20 13 25 10 11 -7 44 28 65 68 11 20 11 27 1 31 -8 3 -6 7 7 12 11 5 21 3
26 -5 11 -18 41 -5 34 15 -4 10 0 15 11 15 9 0 13 -4 10 -10 -4 -6 2 -7 17 -1
13 5 22 14 20 20 -1 6 8 11 20 11 30 0 52 15 44 28 -8 14 34 20 55 8 23 -13
66 19 74 55 7 31 26 50 33 31 2 -7 11 -12 19 -12 13 0 13 3 2 16 -11 13 -9 14
17 8 25 -6 27 -5 16 8 -10 12 -9 18 3 28 8 7 21 10 30 6 9 -3 19 3 25 14 6 11
17 20 24 20 7 0 18 11 26 24 7 13 22 27 33 30 15 3 18 10 14 27 -3 12 0 28 9
36 12 13 14 11 14 -16 0 -16 4 -32 9 -35 5 -4 7 3 4 14 -5 18 -2 19 26 14 27
-6 31 -4 31 15 0 11 -4 21 -10 21 -5 0 -10 7 -10 16 0 14 3 14 15 4 12 -10 15
-9 15 8 0 14 9 21 29 25 33 7 64 34 55 48 -3 6 -12 8 -20 5 -9 -4 -18 4 -24
20 -13 34 -14 33 18 45 15 7 22 13 15 16 -21 7 -15 57 7 71 11 7 20 19 20 28
0 12 8 15 34 12 25 -3 32 0 29 10 -4 9 -15 11 -34 7 -25 -6 -30 -3 -40 22 -6
15 -15 36 -20 45 -7 14 -5 16 8 11 13 -5 15 -3 8 13 -5 10 -10 48 -10 84 -1
36 -3 68 -5 73 -1 4 -3 21 -4 37 -1 22 4 30 16 30 9 0 20 -4 23 -10 3 -5 20
-13 38 -18 18 -5 33 -14 33 -20 1 -7 2 -18 3 -24 1 -9 4 -8 11 2 8 12 10 12
10 1 0 -25 11 -4 15 29 5 34 -32 101 -44 82 -8 -13 -63 -11 -74 3 -5 6 -7 3
-3 -7 4 -13 0 -18 -15 -18 -15 0 -19 5 -15 15 3 9 -3 24 -14 35 -11 11 -20 26
-20 34 0 8 -8 17 -18 20 -9 3 -23 20 -31 38 -7 18 -20 46 -27 62 -8 16 -14 33
-14 38 0 12 54 10 68 -4 6 -6 19 -13 27 -14 13 -2 14 0 4 12 -6 8 -14 12 -17
10 -2 -3 -12 3 -21 13 -20 24 -71 37 -72 19 0 -7 -5 -3 -11 10 -11 22 -32 29
-42 13 -3 -5 1 -14 9 -21 8 -7 15 -19 15 -28 0 -13 -2 -13 -17 0 -24 20 -64
21 -56 2 5 -14 -8 -19 -20 -7 -11 10 -57 13 -57 2 0 -9 13 -12 41 -10 9 1 21
-5 28 -12 9 -12 5 -14 -26 -12 -21 2 -53 4 -70 4 -27 1 -33 5 -34 24 l-2 22
-4 -23 c-3 -17 -9 -21 -23 -17 -12 4 -25 -3 -40 -22 -21 -26 -22 -26 -17 -5 3
13 1 20 -5 16 -6 -4 -14 -1 -18 6 -10 16 -55 -29 -64 -64 -3 -14 -10 -26 -15
-26 -5 0 -7 9 -4 20 7 27 -3 25 -44 -6 -30 -23 -37 -24 -68 -14 -19 6 -37 16
-40 21 -11 16 -38 10 -31 -7 7 -19 -10 -44 -30 -44 -8 0 -23 -9 -34 -20 -16
-16 -18 -25 -10 -40 14 -26 13 -30 -8 -30 -10 0 -26 -6 -37 -13 -39 -25 -97
-40 -105 -27 -6 9 -11 8 -21 -3 -10 -10 -22 -12 -40 -7 -15 5 -31 4 -35 0 -5
-4 -19 -11 -31 -15 -17 -5 -23 -2 -23 9 0 12 -9 16 -32 15 -24 -1 -27 -3 -10
-6 29 -6 29 -23 -1 -23 -28 0 -47 17 -47 42 0 21 16 24 23 6 3 -8 6 -6 6 5 1
9 -6 17 -14 17 -8 0 -15 5 -15 11 0 5 4 8 10 4 15 -9 60 6 60 21 0 17 14 18
41 3 16 -8 26 -7 44 5 14 9 36 16 51 16 18 0 25 4 21 14 -3 8 2 16 13 19 10 3
28 23 39 46 12 22 26 41 31 41 6 0 10 9 10 20 0 22 16 27 22 8 6 -17 28 0 28
22 0 10 -4 22 -10 25 -5 3 -10 12 -10 18 0 8 3 7 9 -2 6 -10 17 -11 37 -6 16
4 43 9 59 12 17 3 38 9 48 14 11 6 17 6 17 -1 0 -6 21 -9 53 -6 57 3 92 26 92
59 0 36 -89 93 -90 57 0 -8 -9 -16 -20 -18 -16 -3 -17 -1 -5 7 11 8 4 11 -32
11 -28 0 -48 -5 -51 -12 -3 -7 -6 -2 -6 12 -1 15 4 31 11 38 9 9 4 12 -23 12
-28 -1 -31 -2 -16 -11 29 -17 19 -24 -28 -21 -40 4 -44 6 -33 20 8 9 8 13 2 9
-7 -4 -14 2 -17 13 -5 21 -33 37 -45 26 -3 -4 -1 -10 5 -14 9 -5 6 -11 -7 -20
-17 -10 -20 -10 -20 5 0 9 -3 13 -7 10 -3 -4 -11 -3 -17 2 -6 4 -19 11 -30 15
-13 4 -17 2 -13 -8 4 -9 -3 -16 -19 -20 -16 -4 -22 -11 -17 -19 8 -12 9 -17
12 -37 0 -5 11 -10 24 -10 16 0 23 -6 24 -20 1 -11 -2 -20 -8 -20 -5 0 -9 -7
-9 -15 0 -23 -44 -47 -74 -39 -19 5 -24 10 -16 18 7 10 1 13 -25 13 -28 0 -35
-4 -35 -20 0 -14 5 -18 20 -14 11 3 18 1 14 -4 -8 -14 -42 -11 -51 6 -5 8 -26
19 -48 24 -22 5 -32 9 -21 10 16 1 16 3 5 17 -8 10 -21 13 -36 9 -19 -4 -22
-2 -20 17 3 18 11 24 38 26 54 4 79 12 79 23 0 8 -13 10 -35 6 -22 -4 -35 -2
-35 5 0 7 -21 9 -61 5 -66 -6 -81 -13 -59 -27 11 -7 12 -10 2 -10 -7 0 -11 -4
-7 -9 8 -13 -27 -31 -51 -26 -10 2 -23 4 -27 4 -5 1 -6 5 -2 10 3 5 1 12 -5
16 -5 3 -10 2 -10 -4 0 -6 -12 -14 -27 -17 -45 -11 -45 -13 -7 -49 22 -21 33
-39 28 -46 -5 -8 -3 -9 6 -4 10 6 12 4 7 -8 -3 -9 -2 -19 3 -22 4 -3 10 1 13
7 2 7 7 10 11 7 9 -9 -4 -39 -17 -39 -13 0 -47 30 -47 43 0 20 -76 76 -112 82
-26 5 -38 12 -38 23 0 15 -2 15 -10 2 -5 -8 -10 -11 -10 -6 0 6 -6 3 -12 -6
-7 -9 -31 -19 -53 -22 -37 -6 -39 -5 -21 9 11 8 16 15 12 15 -5 0 -3 6 3 14 9
11 6 14 -15 14 -14 0 -38 9 -53 20 -23 16 -30 18 -44 7 -10 -7 -27 -10 -38 -8
-12 3 -24 0 -29 -6 -6 -10 -12 -10 -29 0 -17 11 -25 11 -41 1 -24 -15 -50 -16
-50 -1 0 19 -45 5 -48 -16 -2 -15 -1 -16 6 -7 7 11 11 10 16 -3 5 -15 1 -16
-29 -11 -31 6 -35 4 -35 -14 0 -11 -6 -20 -12 -20 -7 0 -24 -9 -38 -19 -17
-14 -29 -17 -42 -10 -18 10 -36 -5 -18 -16 15 -9 12 -25 -5 -25 -8 0 -15 -6
-15 -14 0 -18 -53 -28 -86 -16 -14 6 -33 10 -42 9 -11 -1 -7 -4 8 -9 17 -5 19
-8 8 -9 -10 -1 -18 -5 -18 -11 0 -6 -9 -6 -25 0 -16 6 -25 6 -25 0 0 -6 5 -10
11 -10 8 0 8 -5 -1 -15 -17 -20 -27 -19 -33 5 -7 25 -48 27 -89 3 -24 -15 -29
-23 -25 -46 4 -33 -9 -23 -18 14 -5 21 -2 30 16 43 15 10 18 16 9 16 -13 0
-13 2 0 10 10 7 11 10 2 10 -7 0 -15 -7 -19 -16 -4 -11 -13 -14 -32 -9 -25 6
-26 6 -6 -10 11 -9 14 -14 8 -10 -7 3 -13 0 -13 -7 0 -8 -7 -23 -15 -34 -13
-16 -16 -17 -25 -4 -14 22 -12 33 5 27 8 -4 17 -2 20 3 4 6 -2 10 -12 10 -15
0 -16 2 -3 10 8 5 12 12 8 15 -3 3 -19 -6 -36 -20 -16 -14 -35 -25 -40 -25 -6
0 -18 -10 -26 -22 -13 -18 -16 -19 -16 -5 0 10 -8 17 -20 17 -15 0 -19 -6 -17
-22 2 -19 -4 -24 -30 -26 -18 -2 -40 1 -49 6 -20 11 -137 -11 -142 -27 -2 -6
-10 -11 -17 -11 -7 0 -25 -6 -40 -14 -15 -8 -34 -12 -43 -9 -8 4 -21 -2 -28
-12 -8 -10 -14 -13 -14 -7 0 7 -6 12 -14 12 -9 0 -12 -7 -9 -20 4 -16 2 -19
-11 -14 -9 3 -16 2 -16 -4 0 -5 -9 -12 -21 -15 -12 -3 -18 -10 -14 -16 3 -6 1
-11 -4 -11 -22 0 -72 -54 -67 -73 3 -11 -8 -30 -30 -52 -22 -22 -33 -42 -31
-57 3 -34 -26 -33 -41 2 -15 33 -42 39 -87 18 -27 -12 -27 -13 -2 -87 9 -26 9
-35 0 -38 -7 -2 -9 -11 -6 -19 3 -8 0 -14 -6 -14 -6 0 -11 5 -11 10 0 20 -39
9 -60 -17 l-21 -27 23 -9 c14 -5 24 -4 26 2 2 6 10 11 18 11 8 0 14 5 14 10 0
18 29 11 40 -10 6 -11 21 -20 33 -20 42 0 49 -14 49 -86 0 -38 -3 -105 -7
-148 -4 -59 -3 -81 7 -87 8 -6 9 -9 2 -9 -16 0 -25 -41 -13 -56 14 -17 7 -80
-8 -77 -20 4 -15 -6 16 -35 17 -16 30 -39 32 -57 2 -16 9 -38 17 -47 8 -9 11
-22 7 -28 -4 -7 -2 -16 5 -20 25 -16 -1 -51 -56 -75 -40 -18 -52 -28 -48 -39
10 -25 -70 -22 -96 4 -14 14 -20 16 -20 7 0 -19 -36 -50 -52 -45 -8 3 -5 9 10
17 26 14 29 30 5 26 -10 -1 -12 0 -5 2 18 6 11 48 -8 48 -8 0 -17 -11 -20 -24
-9 -40 -32 -39 -28 0 2 19 7 37 11 40 5 3 0 9 -11 11 -15 4 -19 2 -15 -8 3 -8
0 -14 -7 -14 -19 0 -40 27 -40 52 1 20 2 21 11 6 12 -21 29 -24 29 -5 0 7 9
18 21 25 14 9 17 17 11 25 -5 7 -8 29 -6 50 2 33 -1 37 -16 32 -13 -4 -24 2
-36 19 l-16 26 -20 -25 c-20 -26 -48 -34 -48 -14 0 6 9 13 20 16 11 3 20 9 20
14 0 4 14 23 30 41 17 18 30 38 30 44 0 6 11 19 24 30 14 10 23 21 20 26 -3 4
3 8 13 8 14 0 15 2 4 9 -10 7 -5 11 18 16 22 5 31 12 31 27 0 17 4 19 39 13
30 -5 40 -3 44 9 5 12 0 16 -21 17 -27 0 -27 1 -5 11 24 11 29 33 14 56 -6 10
-10 8 -15 -10 -5 -19 -8 -20 -16 -8 -7 11 -10 7 -10 -17 0 -26 -4 -33 -19 -33
-11 0 -21 6 -24 13 -3 9 -7 9 -19 0 -23 -20 -29 -3 -11 28 14 23 15 31 5 41
-9 9 -12 7 -12 -10 0 -27 -21 -29 -37 -2 -11 17 -10 21 8 31 23 12 19 21 -14
26 -35 6 -43 21 -16 32 20 8 18 9 -16 6 -34 -2 -40 -6 -37 -24 3 -18 -2 -21
-32 -21 -19 0 -38 -4 -41 -10 -3 -5 -1 -10 5 -10 6 0 24 -14 41 -31 l31 -31
-31 -19 c-39 -24 -41 -24 -41 1 0 10 8 24 18 29 15 9 15 12 2 21 -16 10 -51 3
-61 -12 -3 -5 -9 0 -12 11 -3 12 -2 21 3 21 4 0 10 8 13 19 2 10 -1 18 -7 17
-23 -2 -20 19 4 22 13 2 31 13 39 24 12 17 21 19 60 14 45 -6 47 -5 99 45 50
47 52 52 35 65 -23 17 -37 18 -30 0 4 -10 -5 -13 -35 -13 -25 0 -42 5 -45 14
-5 12 -9 11 -29 -2 -29 -19 -29 -19 -31 5 -1 14 7 24 25 32 15 5 35 14 44 19
13 6 18 3 23 -11 8 -27 25 -16 20 13 -8 39 67 92 146 102 48 6 50 28 4 49 -39
19 -46 36 -15 36 11 0 20 5 20 11 0 8 -11 9 -31 5 -27 -5 -30 -4 -19 9 10 12
9 16 -6 22 -10 4 -19 2 -22 -5 -2 -7 -15 -12 -29 -12 -20 0 -24 4 -18 18 4 9
10 28 12 42 l4 25 -24 -27 c-14 -15 -28 -24 -31 -21 -10 11 -86 -49 -86 -68 0
-23 27 -25 58 -3 12 8 23 13 23 10 1 -3 2 -10 3 -15 2 -18 17 -25 26 -12 9 15
40 8 40 -9 0 -5 -7 -10 -16 -10 -12 0 -15 -8 -11 -35 3 -19 1 -35 -4 -35 -4 0
-19 -11 -33 -25 -15 -15 -31 -22 -40 -19 -22 8 -20 27 4 42 35 21 24 38 -22
37 -60 -1 -88 -22 -88 -63 0 -25 -6 -35 -25 -44 -14 -6 -25 -15 -25 -20 0 -4
-8 -8 -18 -8 -10 0 -24 -6 -30 -12 -10 -10 -15 -10 -22 2 -13 21 -18 10 -13
-27 4 -22 9 -30 19 -26 8 3 15 0 15 -6 1 -6 3 -15 4 -21 1 -5 3 -14 4 -19 0
-5 15 -14 31 -20 17 -5 30 -15 30 -20 0 -13 -13 -13 -69 0 -50 11 -71 0 -71
-37 0 -16 6 -24 18 -24 9 0 33 -16 52 -35 32 -33 33 -35 11 -35 -31 0 -61 18
-61 35 0 8 -2 15 -5 15 -12 0 -90 -43 -98 -54 -5 -6 -6 8 -3 32 4 27 2 42 -4
42 -6 0 -8 5 -5 10 4 6 3 24 0 42 -5 22 -9 27 -16 17 -6 -10 -9 -2 -9 24 0 23
4 36 10 32 5 -3 10 -14 10 -23 0 -12 3 -13 12 -4 8 8 9 18 1 35 -8 17 -5 41
13 105 13 46 32 100 41 120 19 43 17 37 27 82 10 42 45 98 91 147 27 29 38 34
47 25 20 -20 30 -13 23 16 -7 35 28 122 53 129 27 7 54 50 47 74 -8 23 -20 15
-28 -16 -3 -14 -5 -12 -6 9 -1 38 34 94 64 102 25 6 49 -2 41 -14 -2 -4 2 -16
10 -27 10 -13 17 -16 25 -8 7 7 5 15 -7 28 -17 16 -17 19 6 62 13 24 45 65 72
91 26 25 48 49 48 53 0 4 -9 9 -20 12 -11 3 -20 1 -20 -4 0 -5 -8 -9 -18 -9
-9 0 -34 -9 -54 -20 -44 -23 -61 -9 -26 20 42 37 90 52 140 46 25 -4 49 -2 52
3 3 5 22 12 41 15 25 5 35 12 35 26 0 10 6 23 13 27 26 16 57 67 52 85 -3 10
-8 28 -11 39 -4 14 -2 19 5 15 6 -4 11 -19 11 -33 l0 -25 31 33 c20 22 33 47
36 72 4 37 4 38 -19 25 -13 -7 -32 -13 -43 -14 -41 -2 -46 -4 -40 -13 3 -6 -3
-10 -12 -10 -42 0 -176 -18 -153 -21 34 -3 0 -11 -180 -44 -8 -2 -22 -6 -30
-9 -8 -3 -26 -8 -40 -10 -64 -13 -134 -37 -141 -49 -6 -10 -11 -10 -20 -1 -8
8 -18 7 -37 -3 -15 -8 -38 -14 -52 -14 -37 0 -146 -36 -129 -43 8 -3 9 -6 2
-6 -6 -1 -14 3 -17 7 -2 4 -23 6 -45 4 -23 -2 -39 -8 -36 -13 3 -4 -10 -7 -28
-5 -33 3 -189 -18 -205 -27 -4 -3 -37 -8 -74 -11 -37 -3 -76 -11 -87 -18 -14
-8 -30 -9 -62 -1 l-44 11 41 -1 c22 0 46 3 52 7 6 3 50 13 99 21 48 8 111 19
138 24 28 6 104 19 170 30 132 22 338 67 370 81 22 9 99 29 130 33 11 1 26 6
33 10 7 5 21 5 32 2 11 -4 20 -2 20 4 0 6 10 11 23 11 12 0 41 7 64 15 23 8
66 19 95 24 29 4 73 13 98 19 25 6 77 18 115 27 60 14 76 23 110 60 42 45 79
65 126 69 22 2 103 48 214 123 11 7 45 30 75 50 30 21 69 50 87 64 17 15 45
30 62 34 16 3 35 13 42 21 6 8 17 14 25 14 7 0 28 8 46 19 18 10 78 30 133 45
55 15 123 33 151 41 28 8 74 15 102 15 30 0 70 8 95 19 37 17 146 43 245 58
20 3 39 15 49 29 18 28 33 31 33 8 0 -11 6 -15 18 -11 9 3 46 14 81 24 46 14
66 25 72 41 5 12 33 34 66 50 72 37 146 36 228 -2 44 -20 60 -23 92 -16 39 9
61 0 48 -20 -4 -6 -14 -9 -23 -5 -9 3 -3 -6 12 -20 34 -31 36 -31 36 3 0 15 5
33 12 40 9 9 9 12 0 12 -7 0 -12 5 -12 10 0 6 18 10 40 10 22 0 43 6 47 13 4
8 21 13 38 13 22 -1 30 4 33 19 6 30 51 85 69 85 9 0 32 -4 52 -9z m3136 -197
c-10 -56 3 -114 28 -123 15 -6 25 -4 33 7 14 19 64 8 64 -14 0 -20 58 -10 123
22 27 13 55 24 62 24 7 0 15 6 18 13 3 8 10 4 22 -11 18 -25 35 -21 35 8 0 22
12 31 53 39 19 4 31 13 33 25 1 11 9 23 16 27 19 13 98 11 98 -2 0 -6 8 -8 19
-4 11 3 22 1 26 -5 4 -6 15 -8 24 -5 10 3 30 -4 46 -17 l28 -22 -5 22 c-4 12
-2 22 3 22 15 0 20 -41 16 -140 -5 -141 -25 -169 -146 -210 -133 -44 -336 -16
-454 64 -57 38 -125 115 -126 144 -1 6 -5 12 -9 12 -23 0 -33 94 -17 148 9 28
17 9 10 -24z m-3489 -1404 c8 0 14 5 14 10 0 19 17 10 31 -16 12 -24 17 -26
58 -20 52 7 76 -6 60 -35 -5 -10 -16 -19 -24 -19 -8 0 -15 -9 -15 -20 0 -28
-28 -37 -44 -15 -11 15 -22 17 -76 11 -35 -4 -76 -14 -92 -22 -25 -13 -28 -13
-28 1 0 30 36 56 89 64 28 4 54 11 58 15 6 6 -27 11 -60 8 -10 -1 -16 2 -13 7
4 5 -3 7 -14 4 -11 -3 -20 0 -20 6 0 6 6 11 14 11 7 0 20 7 27 16 8 10 15 12
17 5 2 -6 10 -11 18 -11z m-702 -175 c-5 -30 -4 -34 10 -29 9 3 16 10 16 14 0
10 46 19 59 11 11 -7 15 -37 13 -104 -2 -45 -3 -48 -24 -42 -19 6 -21 5 -10
-6 15 -16 16 -32 0 -27 -6 2 -22 -6 -36 -19 -14 -13 -32 -23 -41 -23 -16 0
-71 -69 -71 -90 0 -6 -4 -9 -9 -5 -5 3 -16 -3 -23 -13 -17 -24 -76 -53 -84
-41 -3 5 -14 9 -25 9 -16 0 -19 7 -19 39 0 22 -3 47 -7 56 -5 14 -2 16 14 11
14 -4 23 -1 27 9 3 8 12 15 19 15 12 0 23 25 42 95 3 12 23 41 46 65 22 24 45
54 50 68 7 17 14 22 29 17 14 -5 20 -2 20 9 0 9 2 16 5 16 3 0 3 -16 -1 -35z
m-570 -15 c38 14 56 13 56 -5 0 -8 -4 -15 -10 -15 -5 0 -10 -7 -10 -15 0 -18
-21 -29 -87 -45 -29 -6 -53 -16 -53 -21 0 -5 -13 -9 -28 -9 -15 0 -33 -5 -39
-11 -12 -12 -103 -2 -103 12 0 5 -8 9 -17 9 -14 0 -14 3 -5 12 10 10 15 10 21
-1 5 -7 14 -10 20 -7 6 4 9 12 6 17 -5 8 4 12 25 11 3 0 21 -3 40 -7 23 -4 30
-3 22 3 -8 5 -13 12 -13 16 1 3 -2 6 -5 5 -10 -1 -23 24 -18 32 2 4 21 5 42 2
21 -3 52 1 72 10 21 8 40 11 46 5 7 -5 23 -4 38 2z m3905 -67 c9 -15 12 -16
20 -4 6 9 16 11 27 7 18 -7 18 -8 2 -17 -22 -12 -24 -59 -3 -59 9 0 18 7 21
15 10 24 26 17 20 -7 -3 -13 -3 -17 0 -10 3 6 20 12 37 12 18 0 39 5 47 10 13
9 13 11 0 20 -8 5 -10 10 -5 11 24 3 31 6 57 18 28 14 64 8 53 -9 -3 -5 -2
-10 3 -10 6 0 13 -16 16 -35 4 -19 13 -35 20 -35 14 0 26 -49 32 -130 2 -25 6
-57 10 -72 4 -18 2 -28 -5 -28 -12 0 -15 -42 -3 -54 8 -9 9 -18 16 -131 4 -52
2 -71 -3 -55 -8 23 -9 24 -10 3 -1 -12 4 -25 9 -28 11 -7 14 -48 4 -58 -12
-12 -32 5 -27 24 4 13 0 19 -11 19 -9 0 -16 5 -16 10 0 6 7 10 16 10 10 0 5 9
-15 26 -17 14 -35 23 -41 19 -5 -3 -10 2 -11 12 -2 68 -11 105 -27 118 -7 6
-14 17 -16 25 -5 26 -39 90 -48 90 -5 0 -6 5 -3 10 3 6 1 10 -4 10 -6 0 -11 9
-11 19 0 11 -10 27 -21 35 -19 13 -26 13 -48 1 -23 -11 -29 -11 -49 5 -23 19
-29 40 -13 40 6 0 13 -5 16 -10 5 -8 11 -7 20 0 8 7 23 9 33 6 11 -4 26 -4 35
0 13 5 12 9 -6 27 -13 13 -22 17 -25 9 -9 -27 -85 3 -78 31 5 21 2 21 -16 3
-8 -7 -34 -16 -60 -20 l-46 -7 5 45 c5 42 4 44 -16 39 -15 -4 -21 -1 -21 11 0
9 8 16 18 17 9 0 31 9 47 19 38 24 61 24 74 3z m-4199 -162 c-22 -7 -20 -8 16
-13 23 -3 52 -16 64 -28 24 -24 23 -28 -6 -33 -10 -2 -31 -9 -47 -15 -20 -9
-34 -9 -53 0 -19 9 -27 9 -33 0 -9 -15 -151 -12 -151 4 0 6 13 25 29 42 25 25
42 32 98 40 85 12 118 13 83 3z m4641 -101 c14 0 49 -33 49 -46 0 -7 6 -15 13
-18 9 -3 7 -9 -5 -19 -21 -17 -23 -50 -5 -69 6 -7 13 -38 14 -68 2 -34 -1 -50
-6 -41 -5 8 -11 9 -15 3 -3 -5 1 -15 9 -22 8 -7 17 -27 21 -46 3 -19 10 -34
14 -34 5 0 8 -21 8 -47 l0 -48 -13 35 c-10 29 -13 32 -17 15 -5 -18 -6 -18 -7
3 0 13 -5 21 -11 17 -5 -3 -7 -12 -3 -20 3 -8 1 -15 -5 -15 -21 0 -21 30 1 41
31 16 30 15 17 39 -10 18 -17 21 -45 16 -41 -8 -48 2 -29 39 10 19 11 32 4 39
-5 5 -10 15 -10 20 0 6 5 5 12 -2 18 -18 27 -15 21 8 -3 11 0 20 6 20 6 0 11
7 11 15 0 21 -16 19 -25 -2 -6 -16 -8 -16 -25 5 -10 12 -20 19 -23 15 -2 -5
-1 -1 1 7 8 22 7 61 -2 99 -5 22 -5 31 2 27 5 -3 12 3 15 14 3 11 1 20 -4 20
-5 0 -9 5 -9 11 0 5 5 7 10 4 6 -3 11 2 11 12 1 13 3 12 6 -4 2 -13 9 -23 14
-23z m-961 -17 c0 -5 -14 -17 -31 -28 -17 -11 -37 -32 -45 -47 -7 -14 -27 -36
-44 -48 l-31 -22 43 -39 c24 -21 45 -39 48 -39 3 0 6 -9 7 -19 2 -21 -43 -36
-73 -24 -16 6 -15 7 0 19 16 11 16 13 -4 19 -12 4 -27 2 -33 -4 -6 -6 -18 -11
-26 -10 -10 0 -11 2 -4 5 7 3 9 12 6 20 -3 8 1 14 10 14 35 0 30 43 -6 56 -20
6 -18 7 11 11 18 2 32 10 32 18 0 7 14 27 30 45 17 18 30 40 30 49 0 10 3 21
7 24 9 10 73 9 73 0z m310 -91 c0 -12 3 -13 12 -4 19 19 28 14 28 -17 0 -31
18 -45 40 -31 17 11 30 4 30 -16 0 -8 -4 -12 -10 -9 -5 3 -10 3 -10 -2 1 -11
70 -45 70 -33 0 5 -4 12 -10 15 -5 3 -10 13 -10 21 0 12 4 12 21 4 15 -9 24
-8 35 1 12 9 20 9 39 -1 26 -14 33 -30 14 -30 -5 0 -7 -5 -4 -10 4 -6 10 -8
15 -5 5 3 12 -4 15 -16 6 -17 12 -20 38 -15 18 3 38 2 46 -3 16 -10 6 -31 -14
-31 -7 0 -20 -6 -28 -14 -10 -10 -27 -13 -54 -9 -40 5 -41 6 -32 37 7 27 7 29
-5 13 -13 -17 -34 -7 -23 11 10 14 -49 11 -80 -5 -32 -17 -51 -14 -38 6 3 6
18 11 33 12 l27 1 -25 7 c-26 8 -65 -14 -54 -30 3 -5 -5 -9 -17 -9 -18 0 -19
-2 -9 -15 19 -23 5 -47 -23 -40 -17 5 -24 2 -24 -9 0 -17 27 -22 43 -7 5 4 21
11 37 15 20 5 29 2 34 -9 7 -20 -7 -36 -34 -38 -20 -1 -21 -27 -2 -27 5 0 9
-10 8 -22 0 -17 -2 -19 -7 -8 -4 8 -23 17 -42 19 -48 4 -52 8 -48 49 3 43 -10
50 -58 27 -46 -22 -56 -17 -59 28 -2 33 10 47 29 35 2 -2 13 5 24 15 15 14 21
15 24 5 4 -11 8 -11 21 0 9 8 20 11 26 8 5 -3 7 3 4 14 -6 24 5 26 21 4 11
-14 13 -14 25 0 11 14 11 16 -4 16 -12 0 -16 6 -12 19 3 13 0 18 -7 15 -8 -3
-18 16 -28 51 -12 45 -13 53 -2 44 8 -6 14 -19 14 -27z m-5280 -220 c0 -7 -7
-20 -15 -28 -16 -17 -10 -43 10 -40 8 1 22 10 33 19 10 9 24 17 30 17 7 0 12
5 12 10 0 6 4 10 10 10 11 0 9 -28 -4 -48 -4 -7 -5 -16 -2 -19 3 -4 6 -1 6 5
0 9 6 9 25 0 35 -16 33 -40 -2 -32 -16 4 -33 11 -39 16 -15 11 -25 -13 -17
-41 3 -12 1 -21 -6 -21 -6 0 -11 -12 -11 -26 0 -21 -4 -25 -20 -21 -16 4 -20
0 -20 -20 0 -13 4 -22 9 -18 16 9 24 -15 11 -30 -10 -12 -8 -19 11 -35 24 -20
24 -20 5 -35 -28 -22 -2 -18 44 5 22 11 40 26 40 34 0 16 38 66 51 66 17 0 9
-24 -14 -45 -13 -11 -26 -28 -30 -39 -6 -16 -3 -18 28 -14 19 2 35 1 35 -4 0
-4 9 -16 21 -27 12 -11 18 -24 14 -30 -8 -14 -42 -14 -50 0 -5 6 -12 4 -22 -8
-13 -17 -14 -17 -9 0 3 11 0 17 -9 17 -18 0 -19 -8 -2 -43 13 -28 44 -36 64
-16 6 6 17 9 23 7 8 -2 2 -15 -15 -36 -31 -37 -27 -51 9 -34 22 10 26 8 38
-18 9 -21 20 -30 38 -31 l25 -1 -27 -8 c-15 -4 -49 -10 -75 -12 -37 -2 -53 -9
-70 -29 -26 -31 -30 -64 -8 -73 25 -9 18 -28 -7 -20 -32 10 -78 45 -78 60 0 7
-8 10 -20 7 -11 -3 -20 0 -20 6 0 6 5 11 12 11 9 0 9 3 0 12 -7 7 -8 17 -2 28
5 9 5 22 0 29 -12 21 -40 5 -40 -23 0 -19 -4 -23 -19 -19 -12 3 -24 -3 -35
-18 -12 -18 -18 -21 -28 -11 -14 14 -32 16 -23 2 3 -5 0 -10 -7 -10 -7 0 -19
-9 -26 -20 -18 -29 -42 -25 -42 6 0 17 6 28 19 31 22 6 34 49 40 148 1 21 41
45 73 45 12 0 18 7 18 21 0 17 3 19 14 10 10 -9 16 -9 21 -1 11 18 -3 40 -27
40 l-22 0 23 16 c17 12 22 24 19 45 -3 15 -1 26 4 23 4 -3 8 -15 8 -26 0 -12
3 -19 6 -15 4 3 3 27 0 52 -5 30 -12 45 -22 45 -13 0 -12 5 4 28 25 35 37 72
23 72 -15 0 -101 -82 -101 -96 0 -6 -7 -17 -15 -24 -13 -11 -18 -10 -30 6 -13
18 -14 17 -15 -14 0 -18 -4 -31 -8 -28 -5 3 -14 -23 -22 -57 -9 -43 -15 -55
-18 -38 -2 13 1 33 6 45 5 12 15 49 20 84 6 34 20 74 31 89 12 14 21 34 21 45
0 10 6 18 13 16 6 -1 24 6 39 16 15 10 32 15 38 11 6 -4 10 7 10 29 0 29 4 34
20 33 11 -1 20 -7 20 -15z m5208 -326 c-27 -20 -22 -29 12 -23 16 4 32 2 35
-3 4 -6 10 -8 15 -5 4 3 10 -1 13 -9 4 -10 -6 -15 -34 -19 -45 -6 -67 -21 -80
-54 -5 -13 -17 -23 -27 -23 -11 0 -31 -11 -46 -25 -14 -13 -43 -30 -64 -37
-26 -9 -38 -20 -40 -35 -2 -14 2 -23 10 -23 10 0 9 -3 -2 -9 -8 -6 -17 -8 -21
-5 -4 2 -14 -4 -21 -14 -19 -26 -44 -33 -58 -16 -17 20 -30 17 -30 -6 0 -16
-7 -20 -37 -20 -47 0 -60 8 -64 40 -4 24 -7 25 -65 22 -59 -2 -62 -1 -66 23
-3 14 -1 25 3 25 5 0 9 4 9 9 0 5 -8 8 -17 6 -10 -1 -25 1 -34 6 -9 5 -19 5
-23 2 -3 -4 -22 -8 -42 -10 -33 -3 -34 -2 -24 17 15 28 56 36 79 16 26 -24 83
-20 113 7 14 13 31 21 39 19 11 -3 11 -1 -1 7 -13 10 -11 14 13 32 15 11 27
27 27 35 0 8 7 17 15 20 8 4 15 14 15 24 0 15 8 17 48 15 87 -4 182 -18 176
-26 -2 -5 5 -18 16 -29 21 -21 21 -22 3 -35 -17 -13 -16 -14 10 -15 19 0 39
10 58 30 19 18 36 27 45 23 14 -5 15 -1 9 27 -7 34 4 50 35 50 12 -1 12 -3 -2
-14z m-4568 -246 c0 8 3 10 7 6 10 -10 4 -79 -8 -90 -17 -18 -9 -28 16 -24 14
3 25 1 25 -6 1 -6 9 -1 19 12 20 23 55 29 67 11 3 -6 2 -14 -4 -18 -6 -4 -10
-17 -9 -29 2 -26 -1 -25 31 -11 20 10 29 8 54 -10 17 -11 35 -21 40 -21 6 0
13 -18 17 -41 6 -36 10 -40 33 -37 32 4 41 -17 11 -25 -18 -5 -20 -9 -10 -21
17 -20 41 -9 41 20 0 25 7 28 34 18 8 -3 12 -12 9 -20 -7 -18 14 -18 49 0 27
14 46 6 33 -13 -3 -5 22 -22 55 -37 60 -27 71 -38 48 -47 -8 -3 -6 -6 4 -6 11
-1 16 -8 13 -21 -3 -16 2 -20 23 -21 15 -1 34 -3 42 -4 8 -1 23 -3 33 -4 12 0
16 -5 11 -13 -6 -10 -4 -10 8 0 9 7 39 14 67 14 27 1 48 5 46 9 -3 4 5 7 18 7
29 1 138 21 149 28 5 4 39 8 74 10 62 3 65 2 64 -19 -4 -40 0 -47 25 -47 31 0
34 -29 5 -37 -11 -3 -20 -10 -20 -17 0 -6 -4 -6 -9 3 -6 9 -11 10 -15 2 -4 -6
-1 -14 8 -17 8 -3 12 -12 9 -20 -4 -11 1 -10 26 2 17 9 29 20 25 25 -3 5 1 16
10 24 9 9 17 11 21 5 12 -20 45 -10 59 19 9 16 13 31 10 34 -3 3 16 4 43 3 26
-2 53 0 58 4 17 13 199 25 191 12 -10 -16 11 -24 44 -17 20 4 30 13 30 25 0
16 -7 18 -50 15 -30 -2 -48 0 -45 6 4 5 18 10 33 10 l27 1 -30 8 c-23 6 -25 8
-8 9 12 0 23 7 26 14 4 10 7 10 18 0 18 -17 29 -16 29 2 0 11 7 14 25 10 14
-3 36 -7 50 -10 14 -3 25 -1 25 5 0 5 7 10 15 10 8 0 15 5 15 10 0 6 9 10 20
10 14 0 20 6 18 16 -4 25 19 28 25 4 5 -20 27 -29 27 -10 0 6 6 10 13 10 7 0
19 16 27 35 13 32 17 35 54 35 30 0 37 -3 26 -10 -12 -7 -10 -9 7 -8 12 1 19
7 16 15 -4 9 3 10 27 3 42 -12 46 -17 21 -25 -12 -3 -21 -11 -21 -17 0 -7 -13
-8 -35 -5 -19 3 -37 1 -40 -4 -4 -5 1 -9 9 -9 9 0 16 -7 16 -15 0 -8 -6 -12
-14 -9 -8 3 -17 1 -21 -5 -3 -7 3 -11 15 -11 17 0 21 -5 18 -25 -4 -32 -22
-37 -26 -7 -3 22 -30 30 -46 15 -4 -5 -11 -8 -14 -9 -4 0 -18 -6 -32 -12 -17
-7 -19 -11 -8 -11 13 -1 16 -11 16 -46 0 -37 -3 -45 -18 -45 -12 0 -20 8 -22
23 -3 23 -11 25 -65 13 -27 -6 -33 -4 -33 8 0 13 -3 14 -19 4 -11 -7 -17 -17
-13 -23 3 -5 5 -20 3 -32 -1 -13 3 -23 9 -23 6 0 10 -8 9 -17 -3 -37 1 -63 12
-63 5 0 7 5 4 10 -4 6 6 10 24 10 32 0 47 15 43 41 -2 10 6 19 18 22 14 4 20
0 20 -11 1 -12 5 -10 15 8 12 21 14 22 15 6 0 -11 5 -16 14 -13 17 7 46 -23
46 -46 0 -9 5 -19 10 -22 6 -3 10 -14 9 -23 0 -11 -3 -12 -6 -4 -2 6 -16 12
-30 12 -18 0 -24 -4 -20 -15 4 -8 2 -17 -4 -21 -6 -3 -8 -13 -5 -21 7 -17 -28
-58 -42 -49 -6 3 -8 -2 -5 -13 3 -10 0 -22 -7 -26 -14 -9 -50 22 -51 44 -1 9
-4 5 -8 -8 -6 -22 -8 -23 -23 -8 -9 10 -22 17 -28 17 -7 0 -10 7 -6 15 3 8 3
15 1 15 -11 0 -45 -41 -45 -54 0 -18 69 -76 91 -76 21 0 34 -16 19 -25 -6 -3
-30 -8 -54 -10 -32 -3 -46 -1 -50 10 -9 25 -25 17 -34 -17 -7 -27 -13 -33 -35
-33 -28 1 -35 -13 -16 -32 13 -13 9 -18 -58 -87 -31 -32 -43 -39 -46 -27 -5
25 4 51 19 51 7 0 11 6 8 13 -2 7 7 27 20 46 19 25 23 41 19 67 -6 35 9 48 21
18 3 -8 10 -13 15 -9 6 3 8 12 5 19 -3 7 2 16 11 20 9 3 14 10 11 15 -3 5 1
14 9 21 8 7 14 27 14 44 -2 28 -2 29 -6 5 -3 -17 -12 -29 -26 -32 -12 -3 -32
-9 -44 -12 -17 -6 -23 -3 -23 8 0 9 -20 28 -43 42 -44 25 -87 33 -87 16 0 -5
-9 -7 -20 -4 -25 7 -27 -12 -2 -22 16 -7 15 -8 -3 -15 -18 -8 -18 -9 5 -9 15
-1 31 4 38 11 13 13 27 5 17 -11 -3 -6 -24 -11 -46 -11 -28 0 -42 -5 -46 -17
-4 -9 -1 -19 5 -21 7 -2 12 -13 12 -25 -1 -19 -2 -20 -10 -5 -21 35 -84 92
-88 80 -3 -10 -7 -9 -16 3 -6 9 -27 16 -49 17 -35 1 -55 18 -21 18 10 0 13 6
10 18 -5 13 1 17 24 19 21 2 30 -2 30 -12 0 -16 14 -18 43 -6 17 6 17 8 -1 29
-11 12 -25 22 -32 22 -7 0 -19 8 -26 18 -12 16 -15 16 -41 1 -22 -12 -28 -22
-27 -47 2 -35 -11 -43 -19 -12 -4 14 -11 18 -24 14 -17 -5 -17 -5 0 6 21 14
22 39 2 46 -8 4 -15 13 -15 22 0 12 -3 13 -12 4 -15 -15 -48 -16 -48 -2 0 6
-12 10 -27 10 -14 0 -35 8 -45 17 -17 15 -21 15 -29 3 -8 -11 -9 -6 -5 18 4
24 2 32 -9 32 -9 0 -16 -14 -20 -37 -3 -21 -10 -52 -15 -69 -6 -17 -10 -37
-10 -46 0 -9 -9 -18 -20 -21 -12 -3 -20 -14 -20 -26 0 -12 -5 -21 -11 -21 -5
0 -7 -5 -4 -11 4 -6 13 -8 21 -5 20 8 45 -4 37 -17 -4 -6 2 -8 18 -4 13 3 34
4 46 1 19 -5 20 -8 8 -20 -7 -8 -18 -14 -23 -14 -12 0 -34 -59 -26 -71 3 -5
-2 -9 -10 -9 -9 0 -16 -6 -17 -12 0 -9 -2 -9 -5 -2 -5 12 -51 7 -60 -7 -9 -15
-24 -10 -24 7 0 10 -6 14 -15 10 -8 -3 -28 6 -44 20 -23 19 -35 23 -48 16 -28
-16 -93 -12 -93 4 0 8 10 14 23 14 30 0 53 15 38 25 -9 5 -9 10 0 21 10 12 9
16 -8 20 -20 6 -43 42 -43 69 0 7 -6 15 -12 17 -9 3 -8 9 5 22 9 10 17 28 17
41 0 18 -7 24 -35 29 -20 4 -33 11 -30 17 4 5 1 9 -6 9 -9 0 -10 3 -2 11 6 6
9 19 6 29 -4 16 -9 17 -31 9 -14 -5 -37 -11 -51 -13 -14 -2 -33 -7 -41 -10
-19 -8 -56 17 -47 31 4 6 20 10 37 9 35 -3 38 7 9 28 -16 11 -20 22 -17 41 3
14 1 28 -3 31 -5 3 -9 0 -9 -7 0 -8 -6 -6 -18 4 -20 19 -52 23 -52 7 0 -5 -7
-10 -15 -10 -8 0 -15 -7 -15 -15 0 -8 -4 -15 -10 -15 -15 0 -12 -26 5 -40 8
-7 15 -23 15 -35 0 -12 7 -28 15 -35 8 -7 12 -17 9 -22 -4 -6 -10 -6 -17 1 -6
6 -19 11 -29 11 -10 0 -18 5 -18 11 0 6 -7 9 -15 5 -8 -3 -15 -2 -15 2 0 4
-10 8 -22 9 -11 1 -24 7 -28 13 -10 16 -49 -2 -63 -29 -14 -27 -32 -29 -32 -3
0 9 10 21 23 27 27 12 28 25 2 32 -12 3 -19 11 -17 17 2 6 0 19 -4 28 -6 10
-5 19 1 23 5 3 10 15 10 26 0 10 4 19 9 19 5 0 11 9 14 21 3 12 10 18 16 14 6
-3 11 1 11 9 0 9 -6 16 -12 17 -7 0 -3 4 10 9 12 5 22 14 22 20 0 5 8 11 18
11 9 1 4 4 -12 8 -16 3 -31 12 -34 19 -2 7 2 10 12 6 11 -4 16 -1 16 10 0 21
-3 21 -53 -11 -45 -30 -66 -52 -67 -69 0 -7 -20 -34 -45 -60 -25 -27 -45 -55
-45 -61 0 -7 -5 -13 -11 -13 -7 0 -8 12 -4 33 11 53 16 68 23 63 4 -2 8 7 9
21 0 14 6 29 12 33 9 5 7 11 -4 20 -25 21 -69 -28 -70 -77 0 -33 -3 -38 -25
-41 -20 -2 -22 -1 -10 7 13 9 13 11 -2 11 -10 0 -22 9 -28 20 -9 16 -8 20 5
20 8 0 15 -4 15 -10 0 -5 7 -10 16 -10 13 0 15 7 11 30 -5 22 -3 30 8 30 10 0
15 10 15 30 0 20 5 30 15 30 8 0 15 5 15 10 0 6 -9 10 -20 10 -21 0 -27 15
-10 25 6 4 10 21 9 38 -1 18 3 43 8 57 6 14 8 31 6 38 -3 6 0 12 5 12 6 0 13
-10 15 -22 4 -19 5 -18 6 6 1 24 3 27 16 16 12 -10 15 -10 15 0z m3967 -387
c0 -10 -4 -24 -10 -30 -6 -9 -6 -13 2 -13 6 0 11 -7 11 -15 0 -8 -6 -15 -14
-15 -24 0 -63 -49 -76 -95 -7 -25 -16 -45 -19 -45 -9 0 -41 -66 -41 -84 0 -17
-79 -136 -90 -136 -20 0 -20 23 -2 53 12 22 16 39 11 52 -4 11 -8 14 -8 8 -1
-14 -31 -18 -31 -5 0 5 -7 9 -15 9 -10 0 -17 -14 -21 -39 -8 -47 -20 -49 -27
-5 -3 17 -8 40 -12 50 -6 13 -2 17 15 17 11 0 19 4 16 9 -3 5 1 14 9 21 12 10
15 9 15 -4 0 -33 16 -14 30 36 16 56 36 73 43 36 3 -17 5 -14 7 12 1 19 3 40
5 45 1 6 3 15 3 22 1 6 12 13 24 15 14 2 22 11 23 27 1 13 10 30 20 37 18 13
17 14 -8 14 -18 0 -27 5 -27 16 0 12 6 15 23 10 12 -3 30 -6 40 -6 10 0 15 -4
12 -10 -3 -5 1 -10 10 -10 8 0 18 6 21 14 3 8 13 12 24 9 10 -3 21 0 24 6 10
15 13 14 13 -6z m-4818 -93 c1 -13 0 -13 -10 0 -8 11 -9 8 -4 -15 4 -16 8 -35
8 -42 0 -7 3 -12 6 -11 25 2 31 -5 30 -39 -2 -31 -3 -33 -6 -10 -8 53 -21 26
-20 -45 0 -40 2 -63 4 -50 3 12 8 22 13 22 10 0 1 -62 -10 -70 -3 -3 -9 -13
-13 -22 -4 -12 -1 -16 13 -13 17 3 20 -2 18 -35 -1 -44 -24 -46 -31 -2 -2 15
-4 -1 -4 -36 0 -49 2 -60 12 -52 9 8 15 8 20 0 9 -15 -2 -43 -15 -35 -5 3 -10
-1 -10 -10 0 -43 -55 50 -59 100 0 8 -7 12 -15 9 -17 -6 -26 56 -26 170 1 80
5 111 31 213 l13 52 28 -32 c15 -18 27 -39 27 -47z m6236 58 c-4 -13 -15 -32
-25 -43 -10 -11 -26 -36 -35 -55 -10 -19 -28 -43 -41 -53 -13 -10 -24 -25 -24
-33 0 -8 -4 -14 -9 -14 -5 0 -12 -12 -14 -27 -4 -28 -4 -28 -6 3 0 16 -7 36
-13 43 -10 11 -10 14 0 18 6 3 12 20 12 38 0 24 9 42 31 64 17 17 35 29 40 25
5 -3 9 2 9 10 0 9 8 16 19 16 10 0 24 7 31 15 19 22 32 18 25 -7z m-4934 -391
c9 -17 22 -31 29 -29 7 1 18 -5 25 -14 8 -12 14 -14 19 -6 4 7 12 12 17 12 6
0 7 -4 4 -10 -4 -6 5 -10 19 -10 14 0 35 -9 46 -20 13 -13 35 -20 63 -21 l42
-1 -50 -10 c-27 -5 -69 -9 -92 -9 -27 0 -43 -4 -43 -12 -1 -7 -6 -5 -14 6 -7
9 -18 17 -25 17 -6 0 -11 7 -11 15 0 7 -6 18 -14 22 -8 4 -15 12 -15 18 1 18
-17 16 -41 -5 -29 -25 -46 -25 -53 0 -3 11 -1 18 4 14 5 -3 9 2 9 11 0 9 6 15
12 13 18 -6 41 20 34 37 -11 29 19 14 35 -18z m3304 -107 c9 0 18 -6 21 -14 4
-11 13 -12 42 -3 20 6 44 17 53 24 23 19 29 16 29 -14 0 -16 4 -23 8 -17 9 14
81 38 89 30 4 -3 12 -1 19 5 8 6 14 6 18 0 8 -13 2 -16 -71 -36 -35 -10 -63
-19 -63 -21 0 -1 4 -14 10 -28 8 -22 7 -26 -9 -26 -10 0 -21 -7 -25 -15 -3 -9
0 -15 9 -15 8 0 15 -5 15 -11 0 -5 4 -8 9 -5 5 3 11 -3 14 -14 7 -26 -11 -26
-62 2 l-41 22 -30 -22 c-16 -12 -49 -24 -72 -26 -24 -3 -50 -7 -59 -11 -10 -3
-20 -2 -24 4 -3 6 1 11 9 11 11 0 16 9 16 30 0 17 4 30 10 30 5 0 7 7 4 15 -4
10 0 15 14 15 12 0 23 4 27 9 3 6 -7 9 -21 8 -39 -3 -42 22 -5 36 26 10 31 17
32 47 0 31 1 32 9 13 5 -13 16 -23 25 -23z m683 -222 c-15 -23 -15 -23 31 -34
34 -9 39 -12 19 -13 -15 0 -30 -5 -33 -11 -9 -15 -25 -12 -25 5 0 9 -6 12 -15
9 -9 -4 -13 -14 -11 -23 8 -25 -5 -37 -49 -44 -22 -4 -62 -11 -90 -16 -27 -5
-66 -13 -85 -16 l-35 -6 30 14 c17 8 38 18 49 21 16 5 16 9 5 24 -13 15 -12
16 3 4 9 -8 23 -10 29 -6 9 5 5 10 -10 16 -35 13 -19 32 34 40 26 4 73 19 104
35 31 16 58 27 60 26 2 -1 -3 -13 -11 -25z m-3928 -65 c0 -22 2 -24 15 -13 18
15 30 7 21 -15 -8 -22 -36 -31 -47 -14 -6 10 -9 6 -9 -13 0 -30 -10 -34 -40
-18 -12 6 -28 7 -43 1 -17 -7 -28 -6 -36 2 -9 9 -14 9 -20 -1 -5 -9 -28 -12
-72 -10 -59 3 -64 5 -67 27 -3 16 0 21 8 16 8 -5 10 -2 6 11 -5 17 -1 19 39
16 27 -3 45 0 45 7 0 12 98 9 119 -3 6 -4 18 -2 26 4 11 10 15 10 15 1 0 -7 5
-9 10 -6 6 3 10 15 10 26 0 11 5 17 10 14 6 -3 10 -18 10 -32z m925 -64 c4 -6
-1 -20 -12 -32 -10 -12 -27 -39 -37 -60 -20 -39 -69 -82 -101 -89 -11 -2 -19
-11 -19 -21 2 -23 -17 -27 -126 -22 -121 4 -118 4 -100 15 23 14 7 21 -28 11
-26 -8 -34 -6 -41 7 -6 11 -28 18 -68 22 -57 5 -58 6 -56 34 1 16 6 33 10 37
9 9 92 -9 107 -22 6 -5 25 -9 42 -9 18 0 36 -4 39 -10 4 -6 18 -5 40 4 29 13
35 13 46 0 6 -8 19 -13 28 -12 9 2 15 -2 14 -9 -5 -23 36 -25 63 -4 15 12 35
21 44 21 23 0 80 65 80 90 0 11 5 20 11 20 5 0 8 4 4 9 -6 10 22 30 42 31 6 0
15 -5 18 -11z"/>
<path d="M5113 6165 c-10 -8 -25 -15 -33 -15 -32 -1 -50 -27 -54 -74 -2 -26
-8 -52 -15 -59 -8 -8 -11 -8 -11 1 0 7 -4 12 -10 12 -14 0 -12 -27 3 -33 6 -3
-3 -8 -21 -12 -46 -11 -56 -35 -41 -96 7 -27 16 -49 21 -49 4 0 8 -9 8 -20 0
-21 33 -29 45 -10 3 6 18 10 33 10 26 1 26 1 7 16 -17 12 -20 26 -19 82 1 37
-2 69 -6 72 -5 3 -2 16 6 30 12 20 14 21 11 5 -3 -19 26 -55 45 -55 4 0 16 9
25 20 14 16 17 35 14 90 -3 69 -3 70 23 70 15 0 26 6 26 13 0 18 -34 19 -57 2z"/>
<path d="M3970 6141 c0 -12 -5 -21 -11 -21 -7 0 -18 -8 -25 -17 -10 -15 -15
-16 -25 -5 -10 10 -10 12 0 12 7 0 9 5 6 10 -11 18 -56 11 -62 -9 -2 -10 -19
-23 -36 -28 -29 -9 -30 -11 -12 -18 11 -5 26 -13 34 -19 7 -6 47 -11 88 -11
87 -2 121 15 109 53 -7 22 -26 31 -26 12 0 -5 -7 -10 -16 -10 -12 0 -15 7 -12
30 3 17 1 33 -4 36 -4 3 -8 -4 -8 -15z"/>
<path d="M3795 6014 c-21 -7 -42 -20 -47 -28 -5 -8 -16 -22 -24 -31 -9 -9 -14
-19 -11 -22 10 -9 37 5 35 18 -5 21 20 20 27 -1 7 -22 -5 -93 -12 -72 -3 6
-12 12 -21 12 -12 0 -8 -8 13 -30 22 -23 32 -27 42 -19 16 14 17 46 1 51 -9 3
-9 6 0 12 7 4 12 2 12 -3 0 -16 32 -13 58 5 17 12 21 21 16 37 -4 12 -7 33 -8
46 -1 32 -33 42 -81 25z"/>
<path d="M4305 5909 c-4 -5 -16 -9 -29 -9 -13 0 -30 -8 -40 -18 -15 -18 -15
-20 4 -37 11 -10 20 -15 20 -12 0 4 9 -2 20 -13 25 -25 25 -31 1 -72 -10 -18
-21 -62 -24 -98 l-5 -65 21 65 c25 73 41 106 67 135 10 11 21 38 24 60 6 37 4
41 -24 57 -17 10 -32 13 -35 7z"/>
<path d="M5397 5869 c6 -20 3 -21 -23 -15 l-29 6 22 -19 c17 -14 19 -20 9 -24
-7 -3 -19 0 -25 6 -8 8 -11 8 -11 0 0 -7 -10 -13 -22 -15 -13 -2 -28 -14 -35
-28 -7 -14 -27 -31 -47 -38 -30 -11 -37 -11 -55 5 -12 10 -21 24 -22 33 0 9
-2 10 -5 3 -3 -7 -13 -9 -22 -6 -12 3 -14 2 -4 -4 7 -6 10 -17 6 -28 -6 -15
-4 -17 19 -11 23 5 27 3 27 -14 0 -11 5 -20 11 -20 11 0 67 23 102 41 10 5 22
7 27 4 17 -10 11 -34 -10 -45 -30 -16 -25 -33 8 -27 15 2 36 1 47 -3 16 -7 12
-9 -17 -9 -42 -1 -49 -14 -16 -32 27 -14 65 -49 54 -49 -5 0 -24 10 -43 21
-44 27 -56 16 -18 -17 34 -30 72 -47 86 -38 5 3 9 0 9 -5 0 -6 5 -11 10 -11 6
0 10 9 10 20 0 13 -5 18 -15 14 -11 -5 -15 1 -15 21 0 23 3 26 21 22 20 -5 21
-3 16 31 -2 20 -2 48 2 62 10 34 53 29 93 -12 18 -18 43 -33 62 -35 108 -13
116 -12 116 24 0 19 -3 23 -13 15 -8 -7 -18 -6 -31 4 -22 15 -37 18 -35 7 1
-5 1 -16 0 -26 -2 -27 -21 -10 -21 19 0 17 6 24 19 24 10 0 29 9 42 21 19 16
20 19 6 15 -14 -5 -17 -2 -12 13 8 26 -8 34 -55 26 -26 -4 -40 -12 -40 -21 0
-9 5 -12 10 -9 6 3 10 2 10 -4 0 -5 3 -18 6 -28 3 -10 2 -14 -3 -8 -4 6 -20
16 -35 22 -29 13 -35 27 -18 38 12 7 4 25 -11 25 -5 0 -19 -11 -31 -25 -12
-14 -26 -25 -32 -25 -5 0 -17 -7 -27 -16 -22 -20 -55 -13 -88 17 l-24 22 22 9
c13 5 31 4 42 -3 27 -14 99 -2 99 17 0 10 -8 12 -30 7 -35 -6 -59 16 -60 55 0
12 -4 22 -9 22 -5 0 -7 -10 -4 -21z"/>
<path d="M5660 5519 c-32 -13 -40 -26 -40 -71 0 -41 -10 -47 -34 -23 -26 27
-71 30 -95 6 -12 -12 -31 -21 -43 -21 -12 0 -30 -8 -40 -17 -18 -16 -19 -15
-34 5 -11 15 -26 22 -50 22 -35 0 -47 -16 -16 -22 9 -2 -4 -8 -31 -12 -42 -6
-46 -9 -32 -22 9 -9 23 -13 34 -9 11 3 22 1 26 -5 3 -5 15 -10 26 -10 11 0 17
5 14 10 -3 6 2 10 11 10 10 0 14 -3 11 -7 -10 -9 42 -33 73 -33 28 0 60 22 60
41 0 5 -11 9 -24 9 -14 0 -28 4 -31 10 -6 10 17 17 88 23 43 4 49 2 67 -23 11
-16 20 -35 20 -44 0 -11 9 -16 28 -16 15 0 32 -4 38 -9 5 -4 21 -11 36 -15 23
-5 27 -2 37 26 6 17 11 39 11 49 0 24 4 24 65 -6 57 -28 80 -16 39 22 -20 18
-29 21 -45 13 -15 -9 -21 -7 -25 5 -3 8 -17 15 -31 15 -18 0 -27 8 -34 30 -7
18 -15 27 -22 23 -9 -5 -9 -3 0 8 16 20 17 31 1 40 -16 11 -26 10 -58 -2z"/>
<path d="M6728 5383 c-10 -3 -18 -11 -18 -18 0 -18 -60 -75 -79 -75 -8 0 -11
-6 -7 -15 3 -8 1 -15 -4 -15 -6 0 -10 -5 -10 -11 0 -14 42 -1 56 17 6 8 16 14
21 14 6 0 16 14 23 30 7 17 19 30 26 30 8 0 14 5 14 11 0 6 5 9 11 7 13 -4 13
-23 0 -23 -20 0 -21 -14 -1 -20 15 -5 26 0 40 17 l19 23 25 -26 c26 -28 25
-39 -6 -39 -30 0 -16 -24 18 -31 l29 -7 -32 -1 c-17 0 -35 4 -38 9 -9 15 -25
12 -25 -5 0 -8 9 -23 20 -32 11 -10 20 -23 20 -30 0 -18 10 -16 26 5 13 16 13
16 14 0 0 -10 -5 -18 -11 -18 -6 0 -9 -8 -7 -17 2 -9 8 -16 13 -16 6 0 21 -7
35 -16 43 -30 60 -33 60 -11 0 15 -7 20 -24 20 -31 0 -40 14 -41 68 -2 49 8
54 30 12 9 -16 18 -30 21 -30 16 0 65 37 70 52 7 24 -35 61 -53 47 -8 -7 -14
-5 -20 5 -4 8 -12 15 -18 15 -5 0 -11 11 -13 25 -3 25 -20 31 -109 40 -24 3
-46 6 -50 9 -5 2 -16 2 -25 0z"/>
<path d="M1935 5275 c-6 -31 -10 -35 -15 -21 -8 24 -34 -116 -29 -154 2 -14
14 -29 26 -35 31 -13 41 -67 19 -100 -9 -13 -16 -32 -16 -41 0 -9 -9 -18 -20
-21 -25 -7 -26 -29 -1 -43 14 -7 22 -7 27 2 5 7 10 4 16 -11 11 -30 32 -22 36
15 3 30 36 63 63 64 8 0 25 -9 36 -20 18 -16 22 -17 27 -5 7 20 45 19 53 -1 3
-10 -8 -29 -31 -53 -32 -33 -46 -61 -30 -61 20 0 64 46 79 82 9 23 23 47 31
53 16 11 9 49 -7 39 -5 -3 -9 -1 -9 4 0 14 -69 42 -106 42 -21 0 -33 4 -29 10
3 6 0 10 -7 10 -7 0 -2 9 12 20 17 14 19 18 6 14 -15 -6 -17 -3 -12 13 5 15
-1 25 -21 39 -16 10 -36 17 -45 17 -14 -1 -18 6 -18 33 0 24 5 34 15 34 8 0
15 5 15 10 0 6 -4 10 -8 10 -9 0 -31 40 -43 75 -5 16 -8 11 -14 -20z"/>
<path d="M5770 4943 c-14 -2 -32 -7 -40 -10 -8 -3 -18 -6 -22 -5 -13 3 -20
-39 -13 -76 10 -56 38 -111 57 -112 9 0 18 -4 20 -8 2 -5 22 -6 45 -4 24 2 40
8 37 13 -3 5 0 9 6 9 6 0 8 5 5 10 -6 9 11 14 45 12 8 0 22 4 32 9 12 7 20 4
28 -8 11 -17 11 -17 6 0 -3 9 -3 24 1 33 5 13 7 13 14 2 7 -10 9 -9 9 5 0 9
-7 17 -15 17 -8 0 -15 8 -15 18 0 10 -3 13 -8 6 -4 -6 -25 -15 -47 -19 -22 -5
-46 -9 -52 -11 -7 -1 -13 2 -13 7 0 6 -4 8 -9 5 -9 -6 -21 26 -21 60 0 30 -22
50 -50 47z"/>
<path d="M5856 4337 c-18 -13 -17 -15 6 -58 15 -26 33 -45 45 -47 14 -2 21
-11 21 -26 0 -30 30 -76 50 -76 8 0 30 -16 47 -36 27 -30 36 -35 56 -28 13 4
33 7 44 6 19 -3 19 -2 2 12 -12 9 -14 16 -8 21 20 12 12 26 -8 15 -11 -5 -31
-10 -44 -10 -20 0 -26 6 -31 32 -4 21 -2 34 6 39 31 19 48 34 48 42 0 4 -4 6
-9 2 -5 -3 -13 0 -16 6 -4 5 -14 8 -22 5 -8 -3 -11 -1 -8 4 3 5 -7 12 -22 16
-42 9 -50 12 -31 13 11 1 15 7 11 21 -4 15 -11 19 -24 15 -11 -4 -19 -2 -19 4
0 6 -11 11 -25 11 -18 0 -23 4 -19 15 8 19 -25 20 -50 2z"/>
<path d="M5848 4128 c-52 -18 -58 -23 -64 -54 -4 -21 -12 -34 -21 -34 -9 0
-13 6 -9 15 4 10 -1 15 -16 15 -15 0 -18 3 -10 13 8 9 0 11 -35 8 -30 -2 -43
0 -39 7 3 6 2 13 -3 16 -5 4 -12 2 -16 -4 -3 -5 -17 -10 -31 -10 -21 0 -24 -4
-24 -40 0 -40 5 -44 48 -43 6 1 12 -8 12 -18 0 -12 5 -16 15 -13 8 4 15 1 15
-5 0 -6 6 -8 13 -6 7 3 30 -4 51 -14 24 -13 49 -18 66 -15 17 4 42 -2 68 -15
49 -25 66 -27 58 -6 -3 8 -1 15 5 15 6 0 6 6 0 18 -7 13 -7 22 0 29 8 8 2 13
-20 18 -17 4 -31 13 -31 21 0 8 -4 14 -9 14 -4 0 -6 -11 -3 -25 5 -28 -12 -34
-26 -9 -5 9 -13 17 -18 17 -5 1 -10 14 -12 29 -3 25 1 27 41 33 34 5 47 13 56
31 18 41 20 41 -61 12z"/>
<path d="M4983 3573 c-7 -2 -13 -11 -13 -18 0 -20 -22 -65 -32 -65 -4 0 -9 10
-9 23 -1 18 -3 16 -9 -8 -4 -16 -8 -24 -9 -17 0 7 -13 17 -27 22 -14 6 -22 14
-19 20 3 5 1 10 -4 10 -6 0 -11 -4 -11 -9 0 -5 -17 0 -37 10 -25 13 -48 17
-68 13 -62 -12 -65 -14 -61 -45 2 -21 -2 -33 -15 -39 -29 -16 -33 -12 -13 12
17 19 17 21 2 15 -10 -4 -18 -3 -18 2 0 5 -12 11 -27 14 -16 3 -38 8 -50 12
-21 7 -23 4 -23 -24 0 -28 12 -42 23 -23 2 4 2 1 1 -5 -2 -7 1 -13 7 -13 6 0
8 -8 5 -17 -8 -24 72 -61 81 -37 3 8 0 21 -7 29 -10 12 -9 15 4 15 9 0 19 -7
22 -15 4 -8 15 -15 26 -15 11 0 16 -5 13 -11 -4 -5 -4 -20 -1 -32 4 -17 12
-22 38 -22 26 0 33 -5 38 -25 6 -24 7 -24 17 -6 8 15 7 23 -4 34 -17 17 -14
21 23 28 16 3 36 12 44 21 8 9 9 13 3 9 -9 -5 -13 1 -13 19 0 14 4 24 9 20 5
-3 12 -1 16 5 3 5 1 10 -4 10 -6 0 -11 7 -11 16 0 14 3 14 15 4 9 -7 13 -21
10 -30 -4 -14 2 -19 32 -25 33 -6 40 -3 60 19 12 14 29 26 38 26 8 0 15 5 15
10 0 6 9 10 21 10 11 0 19 5 17 12 -7 19 -24 20 -41 3 -18 -17 -31 -20 -22 -5
8 12 -4 70 -13 69 -4 0 -13 -3 -19 -6z"/>
</g>
</svg>
